# xmcd CD database file
#
# Track frame offsets:
#	150
#	13213
#	27765
#	41261
#	58119
#	73688
#	96702
#	109283
#	124053
#	139315
#	154731
#	168651
#	181633
#	201637
#	216363
#	230368
#	247694
#	263268
#	288497
#	301849
#	316273
#
# Disc length: 4369 seconds
#
# Revision: 0
# Processed by: cddbd v1.5.2PL0 Copyright (c) Steve Scherf et al.
# Submitted via: CDex 1.51
#
DISCID=2e110f15
DTITLE=Alison Krauss and the Cox Family - I Know Who Holds Tomorrow (1-12) and various tracks
DYEAR=1900
DGENRE=Country
TTITLE0=01-Walk Over God's Heaven
TTITLE1=02-Will There Be Any Stars
TTITLE2=03-Where No One Stands Alone
TTITLE3=04-Never Will Give Up
TTITLE4=05-Remind Me Dear Lord
TTITLE5=06-I Know Who Holds Tomorrow
TTITLE6=07-Everybody Wants to Go to Heaven
TTITLE7=08-I'd Rather Have Jesus
TTITLE8=09-Far Side Bank of Jordan
TTITLE9=10-In the Palm of your Hand
TTITLE10=11-Loves Me Like A Rock
TTITLE11=12-Jewels
TTITLE12=Alison Krauss and the Cox Family - When God Dips His Love
TTITLE13=The Cox Family - I Am Weary (Let Me Rest)
TTITLE14=05-Heaven's Bright Shore
TTITLE15=14-Jesus Help Me to Stand
TTITLE16=11-In the Palm of your Hand
TTITLE17=14-There is A Reason
TTITLE18=Down To The River To Pray
TTITLE19=Alison Krauss and The Cox Family - Neath The Old Olive Trees
TTITLE20=The Cox Family-Sweeter Than The Flowers
EXTD=
EXTT0=
EXTT1=
EXTT2=
EXTT3=
EXTT4=
EXTT5=
EXTT6=
EXTT7=
EXTT8=
EXTT9=
EXTT10=
EXTT11=
EXTT12=
EXTT13=
EXTT14=
EXTT15=
EXTT16=
EXTT17=
EXTT18=
EXTT19=
EXTT20=
PLAYORDER=
